<svg width="24" height="23" viewBox="0 0 24 23" fill="none" xmlns="http://www.w3.org/2000/svg">
<g id="instagram 1" clip-path="url(#clip0_19_382)">
<g id="Group">
<g id="Group_2">
<path id="Vector" d="M20.0577 0.197754H4.15616C2.33978 0.197754 0.861633 1.6759 0.861633 3.49228V19.3938C0.861633 21.2107 2.33978 22.6884 4.15616 22.6884H20.0577C21.8745 22.6884 23.3523 21.2107 23.3523 19.3938V3.49228C23.3523 1.6759 21.8745 0.197754 20.0577 0.197754ZM22.0344 19.3938C22.0344 20.4837 21.1476 21.3706 20.0577 21.3706H4.15616C3.06633 21.3706 2.17944 20.4837 2.17944 19.3938V3.49228C2.17944 2.40245 3.06633 1.51556 4.15616 1.51556H20.0577C21.1476 1.51556 22.0344 2.40245 22.0344 3.49228V19.3938Z" fill="white"/>
</g>
<g id="Group_3">
<path id="Vector_2" d="M19.3549 2.87744C18.6284 2.87744 18.0371 3.4687 18.0371 4.19525C18.0371 4.9218 18.6284 5.51306 19.3549 5.51306C20.0815 5.51306 20.6727 4.9218 20.6727 4.19525C20.6727 3.4687 20.0815 2.87744 19.3549 2.87744Z" fill="white"/>
</g>
<g id="Group_4">
<path id="Vector_3" d="M12.107 5.5127C8.83704 5.5127 6.17682 8.17291 6.17682 11.4428C6.17682 14.7128 8.83704 17.373 12.107 17.373C15.3769 17.373 18.0371 14.7128 18.0371 11.4428C18.0371 8.17291 15.3769 5.5127 12.107 5.5127ZM12.107 16.0552C9.56359 16.0552 7.49463 13.9862 7.49463 11.4428C7.49463 8.89947 9.56359 6.83051 12.107 6.83051C14.6503 6.83051 16.7193 8.89947 16.7193 11.4428C16.7193 13.9862 14.6503 16.0552 12.107 16.0552Z" fill="white"/>
</g>
</g>
</g>
<defs>
<clipPath id="clip0_19_382">
<rect width="22.4906" height="22.4906" fill="white" transform="translate(0.861633 0.197754)"/>
</clipPath>
</defs>
</svg>
